<?xml version="1.0" encoding="UTF-8" standalone="no"?>
<svg
   xmlns:dc="http://purl.org/dc/elements/1.1/"
   xmlns:cc="http://creativecommons.org/ns#"
   xmlns:rdf="http://www.w3.org/1999/02/22-rdf-syntax-ns#"
   xmlns:svg="http://www.w3.org/2000/svg"
   xmlns="http://www.w3.org/2000/svg"
   style="fill:#000000"
   id="svg2"
   xml:space="preserve"
   enable-background="new 0 0 100 100"
   viewBox="0 0 114.19342 114.19342"
   y="0px"
   x="0px"
   version="1.1"
   width="342.58026"
   height="342.58026"><metadata
     id="metadata26"><rdf:RDF><cc:Work
         rdf:about=""><dc:format>image/svg+xml</dc:format><dc:type
           rdf:resource="http://purl.org/dc/dcmitype/StillImage" /><dc:title></dc:title></cc:Work></rdf:RDF></metadata><defs
     id="defs24" /><g
     transform="translate(14.67299,6.8537728)"
     id="g4"><g
       id="g6"><path
         style="fill:#000000"
         id="path8"
         d="m 74.9,3.1 0,93.6 -71.8,0 0,-93.6 71.8,0 z m -3.1,90.5 0,-87.4 -31.2,0 0,87.4 31.2,0 z m -34.4,0 0,-87.4 -31.2,0 0,87.4 31.2,0 z" /></g></g><g
     transform="translate(14.67299,6.8537728)"
     id="g10"><g
       id="g12"><path
         style="fill:#000000"
         id="path14"
         d="m 96.7,46.8 0,0 -18.7,0 9.2,-16.3 0.1,0.1 9.4,16.2 z m -5.4,-3.1 -4,-6.9 -3.9,6.9 7.9,0 z" /></g></g><g
     transform="translate(14.67299,6.8537728)"
     id="g16"><g
       id="g18"><path
         style="fill:#000000"
         id="path20"
         d="m 78,53.1 0,0 18.7,0 L 87.5,69.4 87.4,69.3 78,53.1 Z m 5.4,3.1 4,6.9 3.9,-6.9 -7.9,0 z" /></g></g><g
     transform="matrix(3.1428806,0,0,3.1428806,-21.475303,-21.475303)"
     id="g3382"
     style="fill:#000000"><path
       d="M 25,43.167 C 14.982,43.167 6.833,35.018 6.833,25 6.833,14.983 14.982,6.833 25,6.833 c 10.017,0 18.167,8.15 18.167,18.167 0,10.018 -8.15,18.167 -18.167,18.167 z M 25,8.833 C 16.086,8.833 8.833,16.085 8.833,25 8.833,33.914 16.086,41.167 25,41.167 33.914,41.167 41.167,33.914 41.167,25 41.167,16.085 33.914,8.833 25,8.833 Z"
       id="path3372" /><path
       d="M 38.661,35.478 12.758,13.105 c -0.228,0.642 -0.705,1.176 -1.419,1.417 l 25.903,22.372 c 0.228,-0.642 0.705,-1.176 1.419,-1.416 z"
       id="path3374" /></g></svg>