<svg xmlns="http://www.w3.org/2000/svg" data-name="Layer 1" viewBox="0 0 56.65 71.5875" x="0px" y="0px"><defs><style>.cls-1{fill:none;}</style></defs><title>search</title><circle class="cls-1" cx="16.29" cy="7.78" r="2.33"/><path class="cls-1" d="M409,28.45a14.32,14.32,0,1,0-.29,20.25A14.32,14.32,0,0,0,409,28.45Zm-11,3.43a2.73,2.73,0,1,1,2.73-2.73A2.74,2.74,0,0,1,398,31.88Z" transform="translate(-381.67 -21.36)"/><path d="M437.57,74.07L420,56l-1.1,1.07-5.46-5.61,1.16-1.13-1.9-2A17.11,17.11,0,1,0,409,52.22l1.81,1.86,1-1,5.46,5.61-1.1,1.07,17.56,18.06A2.69,2.69,0,1,0,437.57,74.07ZM408.72,48.7A14.32,14.32,0,1,1,409,28.45,14.32,14.32,0,0,1,408.72,48.7Z" transform="translate(-381.67 -21.36)"/><path d="M398,26.41a2.73,2.73,0,1,0,2.73,2.73A2.74,2.74,0,0,0,398,26.41Zm0,5.07a2.33,2.33,0,1,1,2.33-2.33A2.33,2.33,0,0,1,398,31.48Z" transform="translate(-381.67 -21.36)"/></svg>
