<?xml version="1.0" encoding="UTF-8" standalone="no"?>
<!-- Created with Inkscape (http://www.inkscape.org/) -->
<svg
   xmlns:dc="http://purl.org/dc/elements/1.1/"
   xmlns:cc="http://web.resource.org/cc/"
   xmlns:rdf="http://www.w3.org/1999/02/22-rdf-syntax-ns#"
   xmlns:svg="http://www.w3.org/2000/svg"
   xmlns="http://www.w3.org/2000/svg"
   xmlns:xlink="http://www.w3.org/1999/xlink"
   xmlns:sodipodi="http://sodipodi.sourceforge.net/DTD/sodipodi-0.dtd"
   xmlns:inkscape="http://www.inkscape.org/namespaces/inkscape"
   version="1.0"
   width="400"
   height="400"
   id="svgServizio"
   sodipodi:version="0.32"
   inkscape:version="0.44.1"
   sodipodi:docname="Feature elevators.svg"
   sodipodi:docbase="E:\Profili\Raf\Documenti\Immagini\Wikipedia\Ferrovie">
  <metadata
     id="metadataServizio">
    <rdf:RDF>
      <cc:Work
         rdf:about="">
        <dc:format>image/svg+xml</dc:format>
        <dc:type
           rdf:resource="http://purl.org/dc/dcmitype/StillImage" />
        <cc:license
           rdf:resource="http://web.resource.org/cc/PublicDomain" />
        <dc:title>Simbolo di ascensore</dc:title>
        <dc:date>2006-11-15</dc:date>
        <dc:creator>
          <cc:Agent>
            <dc:title>Raffaello Di Napoli</dc:title>
          </cc:Agent>
        </dc:creator>
        <dc:rights>
          <cc:Agent>
            <dc:title>Raffaello Di Napoli</dc:title>
          </cc:Agent>
        </dc:rights>
        <dc:publisher>
          <cc:Agent>
            <dc:title>Raffaello Di Napoli</dc:title>
          </cc:Agent>
        </dc:publisher>
        <dc:language>it-IT</dc:language>
        <dc:subject>
          <rdf:Bag>
            <rdf:li>ascensore</rdf:li>
          </rdf:Bag>
        </dc:subject>
        <dc:description>Indicazione di ascensore</dc:description>
      </cc:Work>
      <cc:License
         rdf:about="http://web.resource.org/cc/PublicDomain">
        <cc:permits
           rdf:resource="http://web.resource.org/cc/Reproduction" />
        <cc:permits
           rdf:resource="http://web.resource.org/cc/Distribution" />
        <cc:permits
           rdf:resource="http://web.resource.org/cc/DerivativeWorks" />
      </cc:License>
    </rdf:RDF>
  </metadata>
  <sodipodi:namedview
     inkscape:window-height="977"
     inkscape:window-width="1280"
     inkscape:pageshadow="2"
     inkscape:pageopacity="0.0"
     guidetolerance="10.0"
     gridtolerance="10.0"
     objecttolerance="10.0"
     borderopacity="1.0"
     bordercolor="#666666"
     pagecolor="#ffffff"
     id="base"
     inkscape:zoom="1"
     inkscape:cx="263.56224"
     inkscape:cy="170.78222"
     inkscape:window-x="-4"
     inkscape:window-y="-4"
     inkscape:current-layer="svgServizio"
     width="400px"
     height="400px"
     inkscape:object-points="false" />
  <defs
     id="defsServizio" />
  <rect
     style="fill:white;fill-opacity:1;fill-rule:evenodd;stroke:black;stroke-width:12.5;stroke-miterlimit:4;stroke-dasharray:none;stroke-opacity:1"
     id="rectBordo"
     width="387.5"
     height="387.5"
     x="6.3"
     y="6.3"
     rx="50"
     ry="50" />
  <rect
     style="fill:none;fill-opacity:1;fill-rule:evenodd;stroke:black;stroke-width:12.5;stroke-miterlimit:4;stroke-dasharray:none;stroke-opacity:1"
     id="rectAscensore"
     width="320"
     height="235"
     x="40"
     y="125" />
  <g
     id="gUomini">
    <path
       style="fill:black;fill-opacity:1;fill-rule:evenodd;stroke:none"
       d="M 200,156 C 191.7,156 185,162.7 185,171 C 185,179.3 191.7,186 200,186 C 208.3,186 215,179.3 215,171 C 215,162.7 208.3,156 200,156 z M 179.3,189 C 173.6,189 169,193.5 169,199 L 169,259 C 169,264.5 173.3,269 179,269 L 179,346 C 179,350.4 182.6,354 187,354 C 191.4,354 195,350.4 195,346 L 195,269 L 205,269 C 205,269 205,346 205,346 C 205,350.4 208.6,354 213,354 C 217.4,354 221,350.4 221,346 L 221,269 C 226.7,269 231,264.5 231,259 L 231,199 C 231,193.5 226.4,189 220.7,189 L 179.3,189 z "
       id="pathUomo"
       sodipodi:nodetypes="csssscccccsccccscccccc" />
    <use
       height="400"
       width="400"
       id="useUomo2"
       xlink:href="#pathUomo"
       y="0"
       x="-90" />
    <use
       height="400"
       width="400"
       id="useUomo3"
       xlink:href="#pathUomo"
       y="0"
       x="90" />
  </g>
  <path
     style="opacity:1;fill:black;fill-opacity:1;fill-rule:evenodd;stroke:none"
     d="M 96,63 L 125,25 L 154,63 L 135,63 L 135,105 L 115,105 L 115,63 L 96,63 z "
     id="pathFrecciaSu"
     sodipodi:nodetypes="cccccccc" />
  <use
     x="150"
     y="-134"
     xlink:href="#pathFrecciaSu"
     id="useFrecciaGiu"
     transform="scale(1,-1)"
     width="400"
     height="400" />
</svg>
